HIERARCHY
ROOT root
{
	OFFSET 0.000000 0.000000 0.000000
	CHANNELS 6 Xposition Yposition Zposition Zrotation Yrotation Xrotation
	JOINT lhip
	{
		OFFSET 0.058581 -0.082280 -0.017664
		CHANNELS 3 Zrotation Yrotation Xrotation
		JOINT lknee
		{
			OFFSET 0.043451 -0.386469 0.008037
			CHANNELS 3 Zrotation Yrotation Xrotation
			JOINT lankle
			{
				OFFSET -0.014790 -0.426874 -0.037428
				CHANNELS 3 Zrotation Yrotation Xrotation
				JOINT ltoe
				{
					OFFSET 0.041054 -0.060286 0.122042
					CHANNELS 3 Zrotation Yrotation Xrotation
					End Site
					{
						OFFSET 0.000000 0.000000 0.000000
					}
				}
			}
		}
	}
	JOINT rhip
	{
		OFFSET -0.060310 -0.090513 -0.013543
		CHANNELS 3 Zrotation Yrotation Xrotation
		JOINT rknee
		{
			OFFSET -0.043257 -0.383688 -0.004843
			CHANNELS 3 Zrotation Yrotation Xrotation
			JOINT rankle
			{
				OFFSET 0.019056 -0.420046 -0.034562
				CHANNELS 3 Zrotation Yrotation Xrotation
				JOINT rtoe
				{
					OFFSET -0.034840 -0.062106 0.130323
					CHANNELS 3 Zrotation Yrotation Xrotation
					End Site
					{
						OFFSET 0.000000 0.000000 0.000000
					}
				}
			}
		}
	}
	JOINT lowerback
	{
		OFFSET 0.004439 0.124404 -0.038385
		CHANNELS 3 Zrotation Yrotation Xrotation
		JOINT upperback
		{
			OFFSET 0.004488 0.137956 0.026820
			CHANNELS 3 Zrotation Yrotation Xrotation
			JOINT chest
			{
				OFFSET -0.002265 0.056032 0.002855
				CHANNELS 3 Zrotation Yrotation Xrotation
				JOINT lowerneck
				{
					OFFSET -0.013390 0.211636 -0.033468
					CHANNELS 3 Zrotation Yrotation Xrotation
					JOINT upperneck
					{
						OFFSET 0.010113 0.088937 0.050410
						CHANNELS 3 Zrotation Yrotation Xrotation
						End Site
						{
							OFFSET 0.000000 0.000000 0.000000
						}
					}
				}
				JOINT lclavicle
				{
					OFFSET 0.071702 0.114000 -0.018898
					CHANNELS 3 Zrotation Yrotation Xrotation
					JOINT lshoulder
					{
						OFFSET 0.122921 0.045205 -0.019046
						CHANNELS 3 Zrotation Yrotation Xrotation
						JOINT lelbow
						{
							OFFSET 0.255332 -0.015649 -0.022946
							CHANNELS 3 Zrotation Yrotation Xrotation
							JOINT lwrist
							{
								OFFSET 0.265709 0.012698 -0.007375
								CHANNELS 3 Zrotation Yrotation Xrotation
								End Site
								{
									OFFSET 0.000000 0.000000 0.000000
								}
							}
						}
					}
				}
				JOINT rclavicle
				{
					OFFSET -0.082954 0.112472 -0.023707
					CHANNELS 3 Zrotation Yrotation Xrotation
					JOINT rshoulder
					{
						OFFSET -0.113228 0.046853 -0.008472
						CHANNELS 3 Zrotation Yrotation Xrotation
						JOINT relbow
						{
							OFFSET -0.260127 -0.014369 -0.031269
							CHANNELS 3 Zrotation Yrotation Xrotation
							JOINT rwrist
							{
								OFFSET -0.269108 0.006794 -0.006027
								CHANNELS 3 Zrotation Yrotation Xrotation
								End Site
								{
									OFFSET 0.000000 0.000000 0.000000
								}
							}
						}
					}
				}
			}
		}
	}
}
MOTION
Frames: 13
Frame Time: 0.033333
-0.309443 0.270228 0.989879 96.860372 -0.137496 86.559622 5.941471 3.098230 4.376117 -4.142899 -12.323735 31.312007 -2.781126 17.867267 -14.107930 0.000000 -0.000000 0.000000 -4.336980 -3.251107 -15.450437 2.854018 0.338068 21.273733 6.072552 -9.828901 -12.531651 0.000000 -0.000000 0.000000 2.560204 -1.123558 18.352614 4.528068 -1.476540 -3.458630 3.099843 -0.673933 3.028503 -3.308033 -0.933662 1.048463 -2.973940 -10.150810 4.242567 -8.478890 2.572882 -6.192126 -17.572845 -7.392483 -15.092892 24.350977 -28.492342 -19.014766 9.456005 -0.478193 8.073148 16.648061 2.397186 -6.882704 31.949297 8.569661 -2.727125 -19.228771 15.546887 -14.436694 -24.233486 0.408654 19.862869 
-0.292603 0.263343 0.991522 95.933043 -0.526414 86.354610 5.870288 2.994586 3.603488 -4.446450 -11.194986 34.528214 -3.514791 17.486099 -10.888129 0.000000 -0.000000 0.000000 -4.168876 -3.210559 -14.521078 2.952817 0.516949 21.686616 5.139275 -9.247044 -12.765817 0.000000 -0.000000 0.000000 2.926117 -0.800325 18.538692 4.825555 -1.437114 -3.385107 3.065456 -0.536082 2.770903 -3.826278 -0.593263 0.810616 -3.543680 -10.398761 4.676654 -8.735886 2.444664 -6.175753 -17.558731 -7.192568 -15.042569 24.462044 -28.478479 -19.166244 9.249173 -0.319693 8.421052 17.933576 2.808506 -6.549121 31.914397 8.643339 -3.038304 -20.073139 15.599529 -15.062300 -24.965794 0.813738 21.185309 
-0.275932 0.257845 0.991769 94.859753 -0.871001 86.071146 5.914561 3.216250 3.287503 -4.437877 -10.333476 37.018078 -4.768850 17.203193 -6.660028 0.000000 -0.000000 0.000000 -4.020082 -3.086614 -13.754245 3.038072 0.768798 22.492140 4.023455 -8.625133 -13.040491 0.000000 -0.000000 0.000000 3.341991 -0.673343 18.730045 5.052828 -1.280931 -3.194897 3.035274 -0.385310 2.509361 -4.277330 -0.167393 0.576906 -4.138104 -10.517672 5.266560 -9.145792 2.328956 -6.118466 -17.656030 -6.786079 -14.908210 24.547643 -28.444083 -19.488958 9.027077 -0.248079 8.593268 19.064326 3.390022 -6.096739 31.864461 8.731615 -2.971258 -20.312298 15.819783 -14.844557 -25.504994 1.385113 22.275294 
-0.259190 0.253556 0.991036 93.747731 -1.273545 85.826263 5.933939 3.532387 3.396254 -4.516732 -10.110911 38.642992 -5.823763 16.873710 -3.175926 0.000000 -0.000000 0.000000 -3.978921 -2.889848 -13.166879 3.046184 1.033089 23.574737 2.947800 -7.904464 -13.720505 0.000000 -0.000000 0.000000 3.759430 -0.727536 18.738734 5.269362 -1.113875 -2.890829 3.057735 -0.186458 2.295703 -4.709478 0.495998 0.440141 -4.950650 -10.449017 5.707557 -9.359648 2.399882 -6.144040 -18.375217 -6.437240 -14.774020 24.524207 -28.407268 -19.436154 8.484562 -0.099736 8.394091 19.587434 3.809201 -5.448327 32.487898 9.194933 -2.714334 -20.085084 16.279757 -14.099020 -25.362916 1.432158 21.795270 
-0.242558 0.250067 0.990244 92.776719 -1.779492 85.690728 5.737993 3.427479 3.810211 -4.979580 -10.564380 39.559872 -6.404990 16.414073 -0.250429 0.000000 -0.000000 0.000000 -3.947906 -2.558568 -12.764624 2.853942 1.427541 24.790612 1.993437 -7.791317 -14.703918 0.000000 -0.000000 0.000000 4.094621 -0.688361 18.540820 5.522756 -0.918207 -2.588319 3.119306 -0.077371 2.058275 -5.135906 1.000516 0.497097 -5.759692 -10.335000 6.148020 -9.456262 2.396092 -6.052172 -19.303202 -6.355623 -14.575768 24.464502 -28.254286 -19.206855 8.191353 0.095922 7.958304 19.982536 4.104140 -5.211576 33.364148 9.548870 -2.423702 -19.934499 16.434353 -13.702413 -25.252397 1.409838 21.442436 
-0.226110 0.246974 0.990104 91.955571 -2.409980 85.643324 5.383504 3.182769 4.326126 -5.517417 -11.154237 40.154978 -6.869709 15.630281 2.083384 0.000000 -0.000000 0.000000 -3.882713 -2.090640 -12.288165 2.321984 1.909605 25.755029 1.200619 -8.133823 -15.642514 0.000000 -0.000000 0.000000 4.185807 -0.564045 18.376665 5.720227 -0.734149 -2.558591 3.204692 -0.017975 1.698973 -5.429167 1.294912 0.980090 -6.321445 -10.050000 6.433546 -9.630791 2.311976 -5.721431 -19.772799 -6.314063 -14.344193 24.392245 -28.314247 -18.836624 7.957585 0.207258 7.824539 20.419136 4.239895 -4.881478 34.015182 9.620625 -2.212082 -19.871348 16.470225 -13.591188 -25.192468 1.332017 21.083030 
-0.210245 0.244101 0.990347 91.374991 -2.975892 85.794419 5.111666 2.870954 4.492485 -6.141192 -11.595712 40.825755 -7.340821 14.606253 3.957274 0.000000 -0.000000 0.000000 -3.883200 -1.577656 -11.688354 1.859199 2.266165 26.169122 0.628974 -8.492691 -16.435081 0.000000 -0.000000 0.000000 4.247687 -0.562478 18.070291 5.737380 -0.696754 -2.537953 3.141137 0.033303 1.383364 -5.555392 1.448897 1.242660 -6.464018 -9.690874 6.425969 -9.828494 2.339678 -5.552143 -19.792206 -6.233978 -14.138390 24.571896 -28.743246 -18.772660 7.929162 0.126437 7.971398 20.625042 4.221975 -4.646668 34.488253 9.490555 -2.010203 -19.807205 16.468564 -13.536151 -25.020585 1.371256 20.779890 
-0.195041 0.241751 0.991006 91.101274 -3.351668 86.062035 4.953025 2.476021 4.259955 -7.167660 -12.197473 41.828666 -7.244191 13.568961 3.739323 0.000000 -0.000000 0.000000 -3.983017 -1.458113 -10.960673 1.765643 2.574227 26.121537 0.422375 -8.719722 -17.087659 0.000000 -0.000000 0.000000 4.430673 -0.609824 17.642278 5.630480 -0.837259 -2.582966 2.951824 -0.054002 1.336996 -5.640264 1.421284 1.114022 -6.557653 -9.270908 6.372790 -10.032280 2.529886 -5.555564 -19.856355 -6.212063 -14.068147 24.976526 -29.402049 -18.753864 7.952618 -0.094919 8.130831 20.469269 4.014786 -4.748496 34.562137 9.303985 -2.020729 -19.760390 16.423870 -13.585122 -24.855443 1.415441 20.666250 
-0.180619 0.239426 0.992198 90.934775 -3.612630 86.417670 4.897965 2.118769 3.664165 -8.077452 -12.245962 42.623680 -6.699105 12.820476 -1.463159 0.000000 -0.000000 0.000000 -3.991004 -1.505999 -10.155787 1.779994 3.148338 25.695008 0.909421 -9.079310 -17.839556 0.000000 -0.000000 0.000000 4.495587 -0.472114 17.241414 5.461441 -1.032483 -2.828936 2.795667 -0.139703 1.457080 -5.687020 1.229313 1.071450 -6.532657 -8.871905 6.026185 -10.219762 2.598843 -5.553830 -20.027476 -6.325446 -14.069824 25.013495 -29.684943 -18.498487 8.133200 -0.440528 8.186477 20.082684 3.497236 -5.061003 33.861557 8.854645 -2.457920 -19.836251 16.515410 -13.750688 -24.797754 1.544728 20.651722 
-0.166783 0.236899 0.993559 90.802628 -3.861840 86.738653 4.871789 1.949993 2.761560 -8.261276 -11.444723 42.341331 -5.925964 12.461915 -7.503994 0.000000 -0.000000 0.000000 -3.874446 -1.469444 -9.176151 1.699431 4.005575 24.952378 1.617217 -9.727465 -18.562326 0.000000 -0.000000 0.000000 4.294694 -0.210625 16.885917 5.154070 -1.286144 -2.898996 2.707613 -0.223056 1.542634 -5.776296 0.759989 1.177548 -6.225454 -8.150873 5.192841 -10.399690 2.481693 -5.530635 -20.214349 -6.228984 -13.978850 24.726345 -29.555458 -18.149634 8.313515 -0.691328 8.292235 19.418444 2.955589 -5.452535 32.505679 8.067228 -3.160855 -19.971280 16.850618 -14.359010 -24.862717 1.490851 20.897219 
-0.153646 0.234732 0.994705 90.913898 -4.087801 87.090263 4.801629 1.696152 1.283748 -8.308714 -10.460692 41.397131 -4.960184 12.625187 -11.810974 0.000000 -0.000000 0.000000 -3.819325 -1.459810 -8.148512 1.650241 4.768092 24.028408 2.181670 -10.422373 -19.129862 0.000000 -0.000000 0.000000 4.100053 -0.023258 16.612784 4.613881 -1.660249 -3.060240 2.469697 -0.397636 1.807430 -5.901351 0.114973 1.158187 -5.629834 -7.422127 4.203042 -10.570118 2.509722 -5.582278 -20.502667 -6.090045 -13.837946 24.404178 -29.373102 -17.872905 8.520839 -0.585822 8.286855 18.280628 2.266262 -6.047079 31.045757 7.225567 -3.880872 -19.939137 17.166090 -14.880218 -24.966374 1.246515 20.910225 
-0.140964 0.232918 0.995545 91.192815 -4.193478 87.419958 4.766242 1.621819 -0.735144 -7.813629 -9.204453 39.978891 -4.404631 12.913723 -14.381113 0.000000 -0.000000 0.000000 -3.692120 -1.715241 -7.105094 1.579482 5.411070 23.049067 2.572241 -10.941681 -19.627144 0.000000 -0.000000 0.000000 4.034461 0.120795 16.504591 3.862954 -2.082462 -3.247940 2.123630 -0.562129 1.993163 -6.024843 -0.751450 1.179459 -4.863109 -6.431187 3.242732 -10.864132 2.525828 -5.698634 -20.849827 -5.851932 -13.720033 24.139235 -29.246951 -17.557573 8.600905 -0.633531 8.452400 16.852330 1.607590 -6.639188 29.385363 6.055198 -4.909697 -19.829295 17.299966 -15.288475 -24.765251 1.317527 21.138460 
-0.128736 0.231122 0.995958 91.432469 -4.239424 87.701665 4.770976 1.631036 -2.991326 -7.240289 -7.763004 37.922690 -3.825052 13.502587 -15.928495 0.000000 -0.000000 0.000000 -3.486638 -2.125113 -6.062952 1.490389 6.116340 22.068414 2.771765 -11.480224 -20.048622 0.000000 -0.000000 0.000000 3.897656 0.346068 16.456064 2.984284 -2.439331 -3.333273 1.755613 -0.746366 2.266674 -6.204048 -1.762886 1.187488 -3.834274 -5.421626 2.309166 -11.267134 2.521400 -5.835469 -21.229925 -5.626573 -13.639351 23.945218 -29.253493 -17.419922 8.883563 -0.569328 8.585286 15.332524 0.912196 -7.187992 27.517968 4.842040 -6.161933 -19.642323 17.429806 -15.521570 -24.614879 1.458878 21.780102 
